<?xml version="1.0" encoding="iso-8859-1"?>
<!-- Generator: Adobe Illustrator 19.0.0, SVG Export Plug-In . SVG Version: 6.00 Build 0)  -->
<svg version="1.1" id="Layer_1" xmlns="http://www.w3.org/2000/svg" xmlns:xlink="http://www.w3.org/1999/xlink" x="0px" y="0px"
	 viewBox="0 0 266.149 266.149" style="enable-background:new 0 0 266.149 266.149;" xml:space="preserve">
<g>
	<path style="fill:#1D1D1B;" d="M264.092,150.547c1.849-0.04,2.411,1.768,1.849,3.054c0.08,0.522,0,1.125-0.442,1.607
		c-7.716,9.363-15.592,18.566-23.428,27.768c-4.139,4.903-8.278,9.805-12.498,14.628c-1.808,2.09-5.988,5.345-8.238,8.318
		c0.563,0.804,0.522,1.929-0.442,2.491c-0.442,0.241-0.884,0.442-1.366,0.643c-0.04,0-0.08,0.08-0.161,0.08
		c-8.118,3.215-23.991,0.844-31.787,1.085c-16.757,0.522-33.515,1.206-50.272,1.768c-34.439,1.165-70.084,3.536-104.402-0.482
		c-0.482-0.04-0.764-0.281-0.964-0.603c-0.322-0.161-0.643-0.362-0.884-0.763c-10.611-17.64-22.707-35.563-30.985-54.45
		c-0.161-0.402-0.04-0.764,0.241-0.964c-0.04-0.522,0.322-1.005,1.045-1.085c7.675-0.603,15.471-0.924,23.227-1.165
		c4.661-11.614,10.287-23.227,16.878-33.796c0.442-0.723,1.125-0.884,1.728-0.683c0.121-0.603,0.563-1.125,1.326-1.165
		c2.21-0.08,4.461-0.08,6.671-0.161c1.286-10.288,3.737-20.615,6.028-30.702c0.161-0.683,0.603-0.924,1.085-1.045
		c0.04-0.201,0.121-0.362,0.281-0.482c-0.04-0.12-0.161-0.241-0.201-0.362c-0.201-0.362,0.362-0.683,0.522-0.322
		c0.12,0.201,0.161,0.322,0.201,0.442c3.376-0.362,6.791-0.643,10.207-0.884c-1.447-8.479-2.21-18.566-1.326-27.005
		c0.04-0.281,0.201-0.522,0.402-0.723c-0.482-0.603-0.442-1.567,0.482-1.728c6.671-1.005,13.623-1.567,20.374-1.447
		c1.045,0,1.567,0.683,1.728,1.447c0.522,0.201,1.005,0.683,1.045,1.447c0.482,8.56,1.808,18.164,0.643,26.764
		c1.969-0.04,3.938-0.08,5.948-0.121c-0.442-2.532-0.723-5.063-0.723-7.675c-0.04-2.652-0.201-5.546,1.005-7.917
		c0.201-0.402,0.603-0.522,1.005-0.482c1.447-1.005,3.456-0.603,5.184-0.522c1.848,0.08,3.938-0.161,5.546,0.884
		c0.121,0.08,0.161,0.201,0.241,0.322c0.683,0.08,1.326,0.563,1.407,1.326c0.522,4.461,0,9.243-0.121,13.784
		c18.887-0.322,37.775-0.482,56.461-1.849c1.246-0.08,1.889,0.884,1.889,1.849c0,0.08,0.08,0.121,0.08,0.201
		c3.175,10.649,6.47,21.339,8.921,32.189c3.215-0.121,6.43-0.161,9.685-0.281c1.728-0.08,2.21,1.848,1.447,2.974
		c8.479,11.091,17.119,23.107,23.911,35.283c0,0.04,0,0.08,0,0.121C231.059,151.632,247.576,151.11,264.092,150.547z
		 M236.324,183.379c7.997-9.524,16.074-19.008,24.232-28.371c-42.557,2.009-85.194,2.853-127.831,3.175
		c-42.838,0.362-87.926,3.255-130.443-2.25c5.626,7.394,10.689,15.351,15.512,23.509c0.04,0,0.08-0.08,0.121-0.08
		c38.377-0.402,76.634,0,115.011-1.527c33.756-1.366,68.034,3.898,101.991,4.019C235.882,181.852,236.324,182.615,236.324,183.379z
		 M230.818,189.808c1.447-1.688,2.893-3.416,4.34-5.104c-0.08,0-0.161,0.04-0.241,0.04c-34.238,1.165-67.954-4.983-101.991-3.737
		c-38.016,1.366-76.071,2.25-114.087,0.201c5.304,9.002,10.368,18.164,15.512,27.005c0.161,0.281,0.241,0.563,0.281,0.804
		c30.34-0.683,60.68,0.482,91.061-0.442c15.472-0.482,30.943-1.085,46.414-1.648c7.716-0.241,15.471-0.482,23.187-0.683
		c3.536-0.12,18.445,1.808,23.187,1.969c0-0.04-0.04-0.08-0.04-0.121c-0.723-0.442-1.165-1.366-0.603-2.09l0.281-0.362
		c0.08-0.161,0.241-0.281,0.362-0.402C220.169,199.815,228.769,192.22,230.818,189.808z M211.087,152.235
		c-8.238-10.81-15.632-22.826-22.343-34.56c0-0.04,0-0.08,0-0.08c-47.861,2.009-96.325,4.26-144.226,2.17
		c-0.04,0-0.08-0.04-0.121-0.04c-0.04,0.201-0.08,0.402-0.161,0.603c-5.305,10.77-11.011,21.499-16.717,32.068
		c34.962-0.763,70.486,1.648,105.206,1.407C158.886,153.601,184.966,152.998,211.087,152.235z M176.929,114.139
		c-3.576-9.926-6.51-20.173-9.444-30.3c-34.841,2.492-72.374,6.55-107.135,2.291c0.04,0.241,0.04,0.442,0,0.683
		c-2.049,9.926-3.978,20.093-6.912,29.778C94.548,115.344,135.779,115.385,176.929,114.139z M100.536,81.91
		c3.094-0.08,6.229-0.12,9.323-0.201c-0.522-4.019-0.965-8.318-0.522-12.377c-1.527,0.281-3.255-0.201-4.742-0.442
		c-1.206-0.161-2.532-0.241-3.657-0.683c0.08,2.009-0.321,4.059-0.402,6.068C100.416,76.806,100.456,79.378,100.536,81.91z
		 M90.65,82.151c-1.969-8.198-1.607-17.642-1.889-26.081c-6.068,0.522-12.297,0.482-18.405,0.04
		c1.567,8.359,1.728,18.445,1.005,27.005C77.751,82.673,84.221,82.392,90.65,82.151z"/>
	<path style="fill:#CCECF8;" d="M260.556,155.008c-8.158,9.363-16.235,18.847-24.232,28.371c0-0.764-0.442-1.527-1.407-1.527
		c-33.957-0.121-68.235-5.385-101.991-4.019c-38.377,1.527-76.634,1.125-115.011,1.527c-0.04,0-0.08,0.08-0.121,0.08
		c-4.822-8.158-9.886-16.115-15.512-23.509c42.516,5.506,87.605,2.612,130.443,2.25
		C175.362,157.861,217.999,157.017,260.556,155.008z M245.526,168.148c0.442-0.764-0.683-1.447-1.206-0.683
		c-1.607,2.451-3.577,4.581-5.787,6.51c-0.603,0.522,0.161,1.567,0.844,1.125C242.03,173.292,244.079,171.002,245.526,168.148z
		 M243.878,165.215c0.522-0.482-0.241-1.206-0.804-0.764c-1.929,1.567-3.456,3.376-4.742,5.505
		c-0.362,0.603,0.482,1.085,0.884,0.522C240.543,168.59,242.15,166.822,243.878,165.215z M173.634,168.751
		c0.924,0.08,1.085-1.406,0.201-1.648c-3.416-0.844-7.033-0.804-10.488-0.281c-0.884,0.12-0.683,1.607,0.201,1.567
		C166.963,168.229,170.258,168.47,173.634,168.751z M130.434,165.617c1.005-0.08,1.045-1.648,0-1.607
		c-2.853,0.12-5.706,0.362-8.519,0.643c-0.844,0.08-0.884,1.326,0,1.326C124.728,165.938,127.581,165.818,130.434,165.617z
		 M128.907,163.045c0.965-0.04,0.965-1.447,0-1.487c-3.456-0.161-7.032-0.04-10.529,0.241c-0.643,0.04-0.643,0.964,0,1.005
		C121.875,163.085,125.411,163.206,128.907,163.045z M28.443,173.975c0.804,0.04,0.764-1.125,0-1.206
		c-2.491-0.241-4.983-0.402-7.515-0.442c-0.522,0-0.683,0.884-0.121,0.964C23.339,173.614,25.871,173.855,28.443,173.975z
		 M27.479,176.547c0.844-0.08,0.884-1.286,0-1.366c-2.411-0.201-4.822-0.281-7.193,0.201c-0.482,0.08-0.482,0.884,0,0.964
		C22.656,176.828,25.067,176.748,27.479,176.547z"/>
	<path style="fill:#1D1D1B;" d="M244.321,167.465c0.522-0.764,1.648-0.08,1.206,0.683c-1.447,2.853-3.496,5.144-6.148,6.952
		c-0.683,0.442-1.447-0.603-0.844-1.125C240.744,172.046,242.713,169.917,244.321,167.465z"/>
	<path style="fill:#1D1D1B;" d="M243.075,164.451c0.563-0.442,1.326,0.281,0.804,0.764c-1.728,1.607-3.335,3.376-4.661,5.264
		c-0.402,0.563-1.246,0.08-0.884-0.522C239.619,167.827,241.146,166.018,243.075,164.451z"/>
	<path style="fill:#00A0DB;" d="M235.158,184.705c-1.447,1.688-2.893,3.416-4.34,5.104c-2.049,2.411-10.649,10.006-12.337,15.431
		c-0.121,0.12-0.281,0.241-0.362,0.402l-0.281,0.362c-0.563,0.723-0.121,1.648,0.603,2.09c0,0.04,0.04,0.08,0.04,0.121
		c-4.742-0.161-19.651-2.09-23.187-1.969c-7.716,0.201-15.472,0.442-23.187,0.683c-15.471,0.563-30.943,1.165-46.414,1.648
		c-30.38,0.924-60.72-0.241-91.061,0.442c-0.04-0.241-0.12-0.522-0.281-0.804c-5.144-8.841-10.207-18.003-15.512-27.005
		c38.016,2.049,76.072,1.165,114.087-0.201c34.037-1.246,67.753,4.903,101.991,3.737
		C234.997,184.745,235.078,184.705,235.158,184.705z M213.136,193.626c0.884,0.161,1.246-1.125,0.362-1.366
		c-3.134-0.844-6.269-0.804-9.403-0.04c-0.763,0.201-0.442,1.286,0.322,1.165C207.309,192.863,210.243,193.023,213.136,193.626z
		 M209.319,189.969c0.764,0.04,0.723-1.085,0-1.206c-2.692-0.281-5.385-0.442-8.037-0.402c-0.603,0-0.764,0.964-0.161,1.045
		C203.813,189.768,206.586,189.969,209.319,189.969z M125.893,203.351c1.085,0.04,1.005-1.487,0-1.607
		c-2.491-0.322-5.023-0.402-7.515-0.522c-1.045-0.08-1.005,1.487,0,1.607C120.87,203.03,123.402,203.311,125.893,203.351z
		 M122.397,206.244c0.804,0,1.045-1.286,0.201-1.406c-2.893-0.442-5.827-0.563-8.72-0.563c-0.924,0-0.844,1.246,0,1.366
		C116.691,206.003,119.544,206.285,122.397,206.244z M86.23,187.437c0.683,0,0.683-1.045,0-1.045c-3.175-0.08-6.349-0.08-9.564,0
		c-0.683,0-0.683,1.045,0,1.045C79.881,187.518,83.055,187.518,86.23,187.437z"/>
	<path style="fill:#1D1D1B;" d="M213.498,192.26c0.884,0.241,0.522,1.527-0.362,1.366c-2.893-0.603-5.827-0.763-8.72-0.241
		c-0.763,0.12-1.085-0.965-0.322-1.165C207.229,191.456,210.364,191.416,213.498,192.26z"/>
	<path style="fill:#1D1D1B;" d="M209.319,188.764c0.723,0.121,0.764,1.246,0,1.206c-2.733,0-5.505-0.201-8.198-0.563
		c-0.603-0.08-0.442-1.045,0.161-1.045C203.934,188.322,206.626,188.482,209.319,188.764z"/>
	<path style="fill:#00A0DB;" d="M188.744,117.675c6.711,11.734,14.105,23.75,22.343,34.56c-26.121,0.764-52.201,1.366-78.362,1.567
		c-34.72,0.241-70.244-2.17-105.206-1.407c5.706-10.569,11.413-21.298,16.717-32.068c0.08-0.201,0.121-0.402,0.161-0.603
		c0.04,0,0.08,0.04,0.121,0.04c47.901,2.09,96.365-0.161,144.226-2.17C188.744,117.595,188.744,117.635,188.744,117.675z
		 M188.503,135.196c1.005-0.362,1.085-1.487,0.281-2.09c-1.165-0.884-2.693-0.723-4.099-0.844c-1.447-0.121-1.768,2.291-0.322,2.572
		C185.73,135.156,187.136,135.719,188.503,135.196z M171.665,135.638c0.723-0.321,0.723-1.607,0-1.929
		c-2.25-0.924-4.662-0.603-7.073-0.442c-1.808,0.121-1.808,2.692,0,2.813C167.003,136.241,169.414,136.562,171.665,135.638z
		 M147.835,138.933c1.005-0.201,1.326-1.849,0.321-2.291c-2.451-1.045-5.546-0.522-7.997,0.281c-1.165,0.362-1.045,2.291,0.281,2.21
		C142.852,139.054,145.504,139.456,147.835,138.933z M121.393,135.317c1.447-0.201,1.447-2.09,0-2.291
		c-1.648-0.201-3.376-0.04-5.023,0.201c-1.246,0.161-1.246,1.728,0,1.889C118.017,135.357,119.745,135.518,121.393,135.317z
		 M99.652,135.437c1.326-0.402,1.165-2.09,0-2.532c-1.567-0.603-3.295,0.12-4.581,1.085c-1.366,1.045-0.161,3.295,1.406,2.371
		C97.482,135.719,98.527,135.759,99.652,135.437z M75.018,138.009c1.326-0.201,1.326-2.451,0-2.652
		c-1.447-0.201-2.893-0.04-4.38,0.04c-1.607,0.12-1.607,2.451,0,2.572C72.125,138.049,73.572,138.21,75.018,138.009z M55.89,137.326
		c1.125-0.362,1.125-1.929,0-2.291c-1.567-0.522-3.215-0.241-4.822-0.121c-1.648,0.121-1.648,2.411,0,2.532
		C52.675,137.567,54.323,137.848,55.89,137.326z M41.102,142.028c0.321-0.723-0.764-1.407-1.125-0.643
		c-1.125,2.21-2.049,4.421-2.974,6.711c-0.241,0.563,0.683,0.924,0.964,0.402C39.092,146.368,40.137,144.238,41.102,142.028z
		 M36.681,142.309c0.161-0.241-0.241-0.482-0.402-0.241c-0.563,0.844-1.045,1.648-1.567,2.492c-0.161,0.322,0.321,0.603,0.522,0.281
		C35.717,143.997,36.239,143.193,36.681,142.309z"/>
	<path style="fill:#1D1D1B;" d="M188.784,133.106c0.804,0.603,0.723,1.728-0.281,2.09c-1.366,0.523-2.773-0.04-4.139-0.362
		c-1.447-0.281-1.125-2.693,0.322-2.572C186.091,132.383,187.619,132.222,188.784,133.106z"/>
	<path style="fill:#1D1D1B;" d="M173.835,167.104c0.884,0.241,0.723,1.728-0.201,1.648c-3.376-0.281-6.671-0.522-10.087-0.362
		c-0.884,0.04-1.085-1.447-0.201-1.567C166.802,166.3,170.419,166.26,173.835,167.104z"/>
	<path style="fill:#1D1D1B;" d="M171.665,133.709c0.723,0.322,0.723,1.607,0,1.929c-2.25,0.924-4.662,0.603-7.073,0.442
		c-1.808-0.12-1.808-2.692,0-2.813C167.003,133.106,169.414,132.785,171.665,133.709z"/>
	<path style="fill:#CCECF8;" d="M167.485,83.839c2.934,10.127,5.867,20.374,9.444,30.3c-41.15,1.246-82.381,1.206-123.491,2.451
		c2.934-9.685,4.862-19.852,6.912-29.778c0.04-0.241,0.04-0.442,0-0.683C95.111,90.389,132.645,86.33,167.485,83.839z
		 M167.365,94.207c0.321,0.884,1.688,0.522,1.447-0.402c-0.603-2.21-1.326-4.38-2.049-6.55c-0.322-0.884-1.728-0.522-1.447,0.402
		C165.958,89.867,166.601,92.037,167.365,94.207z M165.999,98.346c0.522,0.763,1.688,0.12,1.206-0.723
		c-0.964-1.728-1.407-3.496-1.085-5.505c0.121-0.844-1.125-1.206-1.326-0.362C164.311,94.086,164.632,96.377,165.999,98.346z
		 M159.489,98.466c0.965-0.764,0.04-2.049-0.884-2.13c-1.688-0.201-3.335,0.402-5.063,0.201c-1.567-0.161-1.929,2.532-0.362,2.773
		C155.309,99.672,157.72,99.913,159.489,98.466z M136.944,100.837c1.447-0.08,1.808-2.09,0.362-2.532
		c-2.049-0.643-4.219-0.281-6.269,0.322c-1.648,0.482-0.924,2.893,0.723,2.572C133.529,100.837,135.176,100.958,136.944,100.837z
		 M116.691,101.721c1.165-0.362,1.286-2.13,0-2.451c-1.969-0.482-4.179,0-6.148,0.241c-1.447,0.201-1.005,2.331,0.322,2.411
		C112.712,102.043,114.882,102.324,116.691,101.721z M96.598,101.721c1.165-0.321,1.165-2.09,0-2.411
		c-1.808-0.482-4.099-0.482-5.706,0.563c-0.482,0.322-0.482,0.965,0,1.286C92.499,102.204,94.79,102.204,96.598,101.721z
		 M73.973,101.641c1.125-0.201,1.125-2.049,0-2.25c-2.09-0.402-4.219-0.161-6.309,0.08c-1.366,0.161-1.366,1.929,0,2.09
		C69.754,101.802,71.884,102.043,73.973,101.641z M65.334,112.813c0.964-0.201,0.563-1.648-0.402-1.487
		c-2.291,0.482-4.501,0.643-6.832,0.683c-0.603,0.04-0.804,1.005-0.161,1.085C60.431,113.496,62.882,113.295,65.334,112.813z"/>
	<path style="fill:#1D1D1B;" d="M168.812,93.805c0.241,0.924-1.125,1.286-1.447,0.402c-0.764-2.17-1.407-4.34-2.05-6.55
		c-0.281-0.924,1.125-1.286,1.447-0.402C167.485,89.425,168.209,91.595,168.812,93.805z"/>
	<path style="fill:#1D1D1B;" d="M167.204,97.622c0.482,0.844-0.683,1.487-1.206,0.723c-1.366-1.969-1.688-4.26-1.206-6.59
		c0.201-0.844,1.447-0.482,1.326,0.362C165.798,94.126,166.24,95.894,167.204,97.622z"/>
	<path style="fill:#1D1D1B;" d="M158.604,96.337c0.924,0.08,1.849,1.366,0.884,2.13c-1.768,1.447-4.179,1.206-6.309,0.844
		c-1.567-0.241-1.205-2.933,0.362-2.773C155.269,96.738,156.917,96.136,158.604,96.337z"/>
	<path style="fill:#1D1D1B;" d="M148.156,136.643c1.005,0.442,0.683,2.09-0.321,2.291c-2.331,0.522-4.983,0.121-7.394,0.201
		c-1.326,0.08-1.447-1.848-0.281-2.21C142.611,136.12,145.705,135.598,148.156,136.643z"/>
	<path style="fill:#1D1D1B;" d="M137.306,98.306c1.447,0.442,1.085,2.451-0.362,2.532c-1.768,0.121-3.416,0-5.184,0.362
		c-1.648,0.321-2.371-2.09-0.723-2.572C133.087,98.024,135.257,97.663,137.306,98.306z"/>
	<path style="fill:#1D1D1B;" d="M130.434,164.009c1.045-0.04,1.005,1.527,0,1.607c-2.853,0.201-5.706,0.322-8.519,0.362
		c-0.884,0-0.844-1.246,0-1.326C124.728,164.371,127.581,164.13,130.434,164.009z"/>
	<path style="fill:#1D1D1B;" d="M128.907,161.558c0.965,0.04,0.965,1.447,0,1.487c-3.496,0.161-7.032,0.04-10.529-0.241
		c-0.643-0.04-0.643-0.965,0-1.005C121.875,161.518,125.451,161.397,128.907,161.558z"/>
	<path style="fill:#1D1D1B;" d="M125.893,201.744c1.005,0.121,1.085,1.648,0,1.607c-2.491-0.04-5.023-0.321-7.515-0.522
		c-1.005-0.121-1.045-1.688,0-1.607C120.87,201.342,123.402,201.422,125.893,201.744z"/>
	<path style="fill:#1D1D1B;" d="M122.598,204.838c0.844,0.121,0.603,1.406-0.201,1.406c-2.853,0.04-5.706-0.241-8.519-0.603
		c-0.844-0.12-0.924-1.366,0-1.366C116.771,204.275,119.705,204.396,122.598,204.838z"/>
	<path style="fill:#1D1D1B;" d="M121.393,133.026c1.447,0.201,1.447,2.09,0,2.291c-1.648,0.201-3.376,0.04-5.023-0.201
		c-1.246-0.161-1.246-1.728,0-1.889C118.017,132.986,119.745,132.825,121.393,133.026z"/>
	<path style="fill:#1D1D1B;" d="M116.691,99.27c1.286,0.322,1.165,2.09,0,2.451c-1.808,0.603-3.978,0.322-5.827,0.201
		c-1.326-0.08-1.768-2.21-0.322-2.411C112.511,99.27,114.722,98.788,116.691,99.27z"/>
	<path style="fill:#00A0DB;" d="M109.859,81.709c-3.094,0.08-6.229,0.121-9.323,0.201c-0.08-2.532-0.121-5.104,0-7.635
		c0.08-2.009,0.482-4.059,0.402-6.068c1.125,0.442,2.451,0.522,3.657,0.683c1.487,0.241,3.215,0.723,4.742,0.442
		C108.895,73.391,109.337,77.69,109.859,81.709z M102.987,70.578c0.121-0.844-1.085-1.206-1.326-0.362
		c-0.522,2.17-0.482,4.179,0.121,6.349c0.161,0.563,1.125,0.442,1.045-0.161C102.586,74.435,102.626,72.506,102.987,70.578z"/>
	<path style="fill:#1D1D1B;" d="M101.661,70.216c0.241-0.844,1.447-0.482,1.326,0.362c-0.362,1.929-0.402,3.858-0.161,5.827
		c0.08,0.603-0.884,0.723-1.045,0.161C101.179,74.395,101.139,72.386,101.661,70.216z"/>
	<path style="fill:#1D1D1B;" d="M99.652,132.906c1.165,0.442,1.326,2.13,0,2.532c-1.125,0.321-2.17,0.281-3.175,0.924
		c-1.567,0.924-2.773-1.326-1.406-2.371C96.357,133.026,98.085,132.303,99.652,132.906z"/>
	<path style="fill:#1D1D1B;" d="M96.598,99.31c1.165,0.322,1.165,2.09,0,2.411c-1.808,0.482-4.099,0.482-5.706-0.563
		c-0.482-0.322-0.482-0.965,0-1.286C92.499,98.828,94.79,98.828,96.598,99.31z"/>
	<path style="fill:#00A0DB;" d="M88.762,56.07c0.281,8.439-0.08,17.883,1.889,26.081c-6.43,0.241-12.9,0.522-19.289,0.965
		c0.723-8.56,0.563-18.646-1.005-27.005C76.465,56.553,82.694,56.593,88.762,56.07z M76.987,76.927
		c0.08-2.371,0.08-4.702-0.04-7.073c-0.04-0.964-1.487-0.964-1.527,0c-0.121,2.371-0.121,4.702-0.04,7.073
		C75.38,77.932,76.987,77.932,76.987,76.927z M73.732,79.057c0.161,0.683,1.125,0.362,1.045-0.281
		c-0.402-2.451-0.482-4.943-0.563-7.394c0-0.723-1.045-0.723-1.125,0C72.848,73.993,73.17,76.485,73.732,79.057z"/>
	<path style="fill:#1D1D1B;" d="M86.23,186.393c0.683,0,0.683,1.045,0,1.045c-3.175,0.08-6.349,0.08-9.564,0
		c-0.683,0-0.683-1.045,0-1.045C79.881,186.312,83.055,186.312,86.23,186.393z"/>
	<path style="fill:#1D1D1B;" d="M76.947,69.854c0.121,2.371,0.121,4.702,0.04,7.073c0,1.005-1.607,1.005-1.607,0
		c-0.08-2.371-0.08-4.702,0.04-7.073C75.46,68.89,76.907,68.89,76.947,69.854z"/>
	<path style="fill:#1D1D1B;" d="M75.018,135.357c1.326,0.201,1.326,2.451,0,2.652c-1.447,0.201-2.893,0.04-4.38-0.04
		c-1.607-0.12-1.607-2.451,0-2.572C72.125,135.317,73.572,135.156,75.018,135.357z"/>
	<path style="fill:#1D1D1B;" d="M74.777,78.775c0.08,0.643-0.884,0.964-1.045,0.281c-0.563-2.572-0.884-5.063-0.643-7.676
		c0.08-0.723,1.125-0.723,1.125,0C74.295,73.833,74.375,76.324,74.777,78.775z"/>
	<path style="fill:#1D1D1B;" d="M73.973,99.391c1.125,0.201,1.125,2.049,0,2.25c-2.09,0.402-4.219,0.161-6.309-0.08
		c-1.366-0.161-1.366-1.929,0-2.09C69.754,99.23,71.884,98.989,73.973,99.391z"/>
	<path style="fill:#1D1D1B;" d="M64.932,111.326c0.965-0.161,1.366,1.286,0.402,1.487c-2.451,0.482-4.903,0.683-7.394,0.281
		c-0.643-0.08-0.442-1.045,0.161-1.085C60.431,111.969,62.641,111.808,64.932,111.326z"/>
	<path style="fill:#1D1D1B;" d="M55.89,135.035c1.125,0.362,1.125,1.929,0,2.291c-1.567,0.522-3.215,0.241-4.822,0.12
		c-1.648-0.12-1.648-2.411,0-2.532C52.675,134.794,54.323,134.513,55.89,135.035z"/>
	<path style="fill:#1D1D1B;" d="M39.976,141.385c0.362-0.764,1.447-0.08,1.125,0.643c-0.965,2.21-2.009,4.34-3.134,6.47
		c-0.281,0.522-1.206,0.161-0.964-0.402C37.927,145.805,38.851,143.595,39.976,141.385z"/>
	<path style="fill:#1D1D1B;" d="M36.279,142.068c0.161-0.241,0.563,0,0.402,0.241c-0.442,0.884-0.965,1.688-1.447,2.532
		c-0.201,0.322-0.683,0.04-0.522-0.281C35.234,143.715,35.717,142.912,36.279,142.068z"/>
	<path style="fill:#1D1D1B;" d="M28.443,172.77c0.764,0.08,0.804,1.246,0,1.206c-2.572-0.12-5.104-0.362-7.635-0.683
		c-0.563-0.08-0.402-0.964,0.121-0.964C23.46,172.368,25.952,172.529,28.443,172.77z"/>
	<path style="fill:#1D1D1B;" d="M27.479,175.181c0.884,0.08,0.844,1.286,0,1.366c-2.411,0.201-4.822,0.281-7.193-0.201
		c-0.482-0.08-0.482-0.884,0-0.964C22.656,174.9,25.067,174.98,27.479,175.181z"/>
</g>
<g>
</g>
<g>
</g>
<g>
</g>
<g>
</g>
<g>
</g>
<g>
</g>
<g>
</g>
<g>
</g>
<g>
</g>
<g>
</g>
<g>
</g>
<g>
</g>
<g>
</g>
<g>
</g>
<g>
</g>
</svg>
